# xmcd
#
# Track frame offsets: 
#        150
#        15231
#        40791
#        89184
#        165364
#        207074
#        234055
#        261432
#        282395
#
# Disc length: 3968 seconds
#
# Revision: 0
# Processed by: cddbd v1.5.2PL0 Copyright (c) Steve Scherf et al.
# Submitted via: ExactAudioCopy v0.99pb4
#
DISCID=6c0f7e09
DTITLE=Alexis Korner and Peter Thorup With Snape - Live On Tour In Germa
DTITLE=ny
DYEAR=1973
DGENRE=Blues
TTITLE0=Going Down
TTITLE1=Early In The Morning
TTITLE2=You Got The Power
TTITLE3=Snape
TTITLE4=Rock Me Baby
TTITLE5=These Kind Of Blues
TTITLE6=The Night Time Is The Right Time
TTITLE7=Bottom Of The Sea
TTITLE8=Oo-Wee Baby
EXTD=
EXTT0=
EXTT1=
EXTT2=
EXTT3=
EXTT4=
EXTT5=
EXTT6=
EXTT7=
EXTT8=
PLAYORDER=
